<svg width="645" height="608" viewBox="0 0 645 608" fill="none" xmlns="http://www.w3.org/2000/svg">
<path d="M138.764 311.053C114.221 314.536 96.7369 337.503 104.914 360.906C115.884 392.301 133.594 421.12 157.005 445.238C190.902 480.159 235.002 503.428 282.962 511.698C330.921 519.967 380.267 512.81 423.901 491.257C467.536 469.704 503.209 434.866 525.789 391.754C548.368 348.642 556.691 299.479 549.559 251.338C542.428 203.196 520.209 158.557 486.1 123.844C451.991 89.1296 407.75 66.1297 359.741 58.1528C326.583 52.6434 292.809 54.4963 260.754 63.358C236.861 69.9634 227.938 97.4145 239.052 119.573C250.165 141.732 277.279 149.857 301.809 146.28C316.063 144.202 330.64 144.319 345.027 146.709C374.298 151.573 401.271 165.596 422.067 186.761C442.863 207.925 456.41 235.141 460.758 264.493C465.106 293.844 460.032 323.819 446.265 350.104C432.498 376.389 410.749 397.629 384.145 410.77C357.542 423.911 327.456 428.274 298.215 423.232C268.975 418.191 242.087 404.004 221.42 382.713C211.263 372.248 202.865 360.332 196.456 347.431C185.427 325.23 163.308 307.57 138.764 311.053Z" fill="#FB7E0A"/>
<path d="M313.94 394.403C259.297 386.382 221.502 335.583 229.523 280.94C237.544 226.297 288.343 188.502 342.985 196.523C397.628 204.544 435.423 255.343 427.402 309.986C419.382 364.629 368.583 402.423 313.94 394.403ZM337.317 235.14C304.002 230.25 273.03 253.293 268.14 286.608C263.249 319.924 286.293 350.895 319.608 355.786C352.923 360.676 383.895 337.633 388.785 304.317C393.676 271.002 370.632 240.03 337.317 235.14Z" fill="#03294C"/>
<circle cx="175.878" cy="195.878" r="15" transform="rotate(124.804 175.878 195.878)" fill="#03294C"/>
<circle cx="204.797" cy="146.797" r="25" transform="rotate(124.804 204.797 146.797)" fill="#03294C"/>
</svg>
