<svg width="1017" height="976" viewBox="0 0 1017 976" fill="none" xmlns="http://www.w3.org/2000/svg">
<path d="M936.734 411.061C976.094 403.989 1002.54 365.782 988.954 328.17C964.504 260.481 924.714 198.494 872.096 146.846C801.788 77.8324 711.734 30.3772 613.322 10.4812C514.91 -9.41482 412.561 -0.858008 319.216 35.0695C225.872 70.9971 145.725 132.682 88.9107 212.323C32.0965 291.964 1.16659 385.985 0.0323399 482.497C-1.10191 579.008 27.6104 673.674 82.5385 754.525C137.467 835.376 216.143 898.78 308.62 936.719C379.537 965.813 456.127 978.929 532.565 975.454C571.011 973.706 596.04 936.744 588.671 898.97C581.456 861.984 545.763 838.313 508.079 838.271C459.135 838.216 410.462 828.714 365.032 810.076C298.656 782.845 242.184 737.335 202.758 679.303C163.333 621.271 142.724 553.323 143.538 484.05C144.352 414.777 166.553 347.292 207.332 290.128C248.112 232.964 305.639 188.689 372.638 162.901C439.638 137.113 513.101 130.972 583.738 145.252C654.375 159.533 719.013 193.595 769.478 243.13C802.762 275.802 828.895 314.237 846.643 356.157C861.909 392.216 898.194 417.985 936.734 411.061Z" fill="#03294C"/>
<path d="M721.939 428.467C744.374 426.778 761.699 407.383 757.217 385.336C747.733 338.687 725.993 295.272 693.777 259.405C652.485 213.436 596.301 182.447 533.97 171.262C471.639 160.077 406.659 169.323 349.144 197.562C291.629 225.801 244.807 271.447 215.965 327.397C187.124 383.346 177.882 446.458 189.677 506.909C201.473 567.36 233.645 621.759 281.185 661.637C328.725 701.514 388.966 724.634 452.53 727.397C502.555 729.571 552.429 719.041 597.348 697.153C617.459 687.354 622.201 661.829 609.471 643.433C597.045 625.476 572.609 621.191 552.545 629.81C522.998 642.502 490.834 648.501 458.583 647.1C413.231 645.129 370.251 628.634 336.333 600.182C302.415 571.73 279.461 532.919 271.045 489.789C262.629 446.659 269.223 401.63 289.801 361.712C310.378 321.794 343.785 289.226 384.82 269.079C425.855 248.931 472.216 242.334 516.688 250.314C561.159 258.295 601.244 280.404 630.705 313.202C650.611 335.364 664.911 361.565 672.78 389.806C679.033 412.244 698.712 430.215 721.939 428.467Z" fill="#FB7E0A"/>
<circle cx="713.5" cy="804.5" r="102.5" fill="#FB7E0A"/>
<circle cx="827" cy="666" r="50" fill="#FB7E0A"/>
<circle cx="806" cy="731" r="10" fill="#FB7E0A"/>
<circle cx="949" cy="463" r="35" fill="#03294C"/>
<circle cx="719" cy="488" r="25" fill="#03294C"/>
<circle cx="704" cy="530" r="10" fill="#03294C"/>
<path d="M572.441 322.877C636.333 381.903 640.278 481.548 581.252 545.441C522.226 609.334 422.581 613.279 358.688 554.252C294.795 495.226 290.85 395.581 349.876 331.688C408.903 267.796 508.548 263.85 572.441 322.877ZM402.501 506.827C440.201 541.656 498.998 539.329 533.827 501.628C568.656 463.928 566.328 405.131 528.628 370.302C490.927 335.473 432.13 337.8 397.301 375.501C362.472 413.202 364.8 471.998 402.501 506.827Z" fill="#03294C"/>
<path d="M71.22 445.52C70.9933 445.387 70.7933 445.227 70.62 445.04C70.46 444.84 70.3467 444.654 70.28 444.48C70.24 444.36 70.22 444.267 70.22 444.2C70.2333 444.134 70.26 444.054 70.3 443.96C70.3533 443.867 70.3867 443.734 70.4 443.56C70.4267 443.374 70.44 443.094 70.44 442.72C70.44 442.107 70.42 441.627 70.38 441.28C70.3533 440.92 70.3067 440.74 70.24 440.74C70.2267 440.74 70.1533 440.814 70.02 440.96C69.9 441.107 69.7667 441.28 69.62 441.48C69.26 441.96 68.9467 442.354 68.68 442.66C68.4133 442.967 68.06 443.394 67.62 443.94C67.34 444.3 67.1467 444.534 67.04 444.64C66.9333 444.734 66.8267 444.78 66.72 444.78C66.6267 444.78 66.56 444.767 66.52 444.74C66.4933 444.714 66.4733 444.667 66.46 444.6C66.4333 444.387 66.52 444.074 66.72 443.66C66.92 443.234 67.26 442.667 67.74 441.96C68.98 440.08 69.6533 439.027 69.76 438.8C69.7867 438.734 69.78 438.667 69.74 438.6C69.7133 438.534 69.64 438.434 69.52 438.3C69.4267 438.194 69.3467 438.087 69.28 437.98C69.2133 437.874 69.1667 437.787 69.14 437.72C69.1267 437.64 69.1267 437.574 69.14 437.52C69.1533 437.467 69.2133 437.374 69.32 437.24L69.82 436.6C70.3267 435.96 70.6867 435.487 70.9 435.18C71.1267 434.874 71.2733 434.627 71.34 434.44C71.4333 434.2 71.5533 433.967 71.7 433.74C71.86 433.514 71.9733 433.4 72.04 433.4C72.0667 433.4 72.1067 433.434 72.16 433.5C72.2267 433.554 72.2867 433.62 72.34 433.7C72.46 433.887 72.5733 434.027 72.68 434.12C72.8 434.214 72.98 434.314 73.22 434.42C74.22 434.86 74.8667 435.274 75.16 435.66C75.2667 435.794 75.3333 436.02 75.36 436.34L75.4 436.8L75.84 437.02C76.0667 437.127 76.2733 437.274 76.46 437.46C76.66 437.647 76.76 437.8 76.76 437.92C76.76 437.947 76.6667 438.067 76.48 438.28C76.3067 438.494 76.0933 438.727 75.84 438.98C75.2267 439.607 74.8867 439.98 74.82 440.1C74.7667 440.207 74.76 440.287 74.8 440.34C74.84 440.394 75.0067 440.474 75.3 440.58C75.5933 440.687 75.9267 440.84 76.3 441.04C76.6867 441.227 77.2467 441.48 77.98 441.8C78.4867 442.027 78.9533 442.267 79.38 442.52C79.8067 442.76 80.0733 442.947 80.18 443.08C80.2467 443.16 80.28 443.274 80.28 443.42C80.28 443.527 80.26 443.594 80.22 443.62C80.1933 443.634 80.1067 443.64 79.96 443.64C79.7467 443.64 79.36 443.6 78.8 443.52C78.4667 443.467 78.18 443.407 77.94 443.34C77.7133 443.274 77.4 443.147 77 442.96C76.16 442.587 75.58 442.334 75.26 442.2C74.8867 442.04 74.6333 441.947 74.5 441.92C74.3667 441.88 74.2733 441.88 74.22 441.92C74.1667 441.947 74.02 442.154 73.78 442.54C73.5533 442.927 73.2933 443.4 73 443.96C72.72 444.467 72.4533 444.894 72.2 445.24C71.96 445.574 71.7933 445.74 71.7 445.74C71.6067 445.74 71.4467 445.667 71.22 445.52ZM65.7 444.2C65.4733 444.054 65.2 443.727 64.88 443.22C64.5733 442.714 64.3333 442.2 64.16 441.68C64.0533 441.36 63.9867 441.034 63.96 440.7C63.9333 440.367 63.9533 440.074 64.02 439.82L64.32 438.76C64.4 438.427 64.4467 438.2 64.46 438.08C64.4733 437.947 64.46 437.82 64.42 437.7C64.4067 437.62 64.3533 437.514 64.26 437.38C64.1667 437.234 64.0667 437.1 63.96 436.98C63.7067 436.687 63.5267 436.46 63.42 436.3C63.3133 436.14 63.26 436 63.26 435.88C63.26 435.76 63.34 435.62 63.5 435.46C63.66 435.287 63.7533 435.2 63.78 435.2C63.82 435.2 63.8733 435.294 63.94 435.48C64.0067 435.654 64.2867 435.974 64.78 436.44L65.54 437.16L65.5 437.64C65.4867 437.774 65.44 437.974 65.36 438.24C65.2933 438.494 65.22 438.734 65.14 438.96C64.9267 439.507 64.8 439.887 64.76 440.1C64.7333 440.3 64.7533 440.514 64.82 440.74C64.9 440.967 65.0067 441.2 65.14 441.44C65.2867 441.667 65.3933 441.767 65.46 441.74C65.4733 441.74 65.5267 441.614 65.62 441.36C65.7133 441.107 65.8067 440.814 65.9 440.48C66.0867 439.84 66.22 439.414 66.3 439.2C66.3933 438.987 66.4733 438.88 66.54 438.88C66.6067 438.88 66.6467 439 66.66 439.24C66.6867 439.467 66.6867 439.867 66.66 440.44C66.6333 440.934 66.58 441.494 66.5 442.12C66.42 442.734 66.3267 443.26 66.22 443.7C66.1267 444.127 66.0533 444.34 66 444.34C65.96 444.34 65.86 444.294 65.7 444.2ZM72.2 443.14C72.4533 442.82 72.6533 442.54 72.8 442.3C72.9467 442.047 73.02 441.867 73.02 441.76C73.02 441.68 72.98 441.587 72.9 441.48C72.82 441.374 72.6667 441.227 72.44 441.04L71.72 440.4C71.5733 440.28 71.48 440.22 71.44 440.22C71.4133 440.207 71.3867 440.234 71.36 440.3C71.3333 440.407 71.34 440.947 71.38 441.92C71.4333 442.88 71.48 443.407 71.52 443.5C71.56 443.594 71.5933 443.647 71.62 443.66C71.6467 443.674 71.6867 443.667 71.74 443.64C71.8333 443.574 71.9867 443.407 72.2 443.14ZM73.36 439.72C73.48 439.654 73.7 439.454 74.02 439.12C74.3533 438.774 74.6667 438.414 74.96 438.04C75.1333 437.814 75.2 437.64 75.16 437.52C75.1467 437.44 75.0267 437.307 74.8 437.12C74.5867 436.92 74.3667 436.754 74.14 436.62C74.06 436.567 73.98 436.547 73.9 436.56C73.8333 436.574 73.6867 436.634 73.46 436.74C73.1533 436.887 72.8933 437.054 72.68 437.24C72.4667 437.414 72.3267 437.587 72.26 437.76C72.1933 437.934 72.16 438.167 72.16 438.46C72.16 438.647 72.1733 438.794 72.2 438.9C72.2267 438.994 72.28 439.107 72.36 439.24C72.4533 439.36 72.58 439.487 72.74 439.62C72.9133 439.754 73.04 439.82 73.12 439.82C73.16 439.82 73.24 439.787 73.36 439.72ZM67.74 437.12C67.7667 437 67.8667 436.787 68.04 436.48C68.2267 436.16 68.36 435.954 68.44 435.86C68.4933 435.807 68.6867 435.52 69.02 435L69.66 434.02C69.7667 433.874 69.82 433.787 69.82 433.76C69.82 433.734 69.8933 433.6 70.04 433.36C70.2 433.107 70.28 432.967 70.28 432.94C70.28 432.914 70.2533 432.894 70.2 432.88C70.1467 432.867 70.08 432.86 70 432.86C69.8267 432.86 69.64 432.8 69.44 432.68C69.24 432.547 69.04 432.367 68.84 432.14C68.6533 431.9 68.5333 431.714 68.48 431.58C68.44 431.434 68.4467 431.314 68.5 431.22C68.6067 431.06 68.7467 430.987 68.92 431C69.1067 431.014 69.3533 431.114 69.66 431.3L70.06 431.56L71.6 430.94C72.1067 430.754 72.6 430.56 73.08 430.36C74.0267 429.947 74.62 429.74 74.86 429.74C74.98 429.74 75.1133 429.834 75.26 430.02L75.62 430.46C75.7133 430.58 75.7533 430.68 75.74 430.76C75.7267 430.827 75.6533 430.9 75.52 430.98C75.3867 431.06 75.1533 431.174 74.82 431.32C74.22 431.574 73.6067 431.814 72.98 432.04C72.3533 432.254 72.0067 432.38 71.94 432.42C71.8867 432.447 71.82 432.587 71.74 432.84C71.5933 433.267 71.28 433.84 70.8 434.56C70.3333 435.267 69.9667 435.72 69.7 435.92C69.54 436.054 69.3333 436.167 69.08 436.26C68.8267 436.354 68.5267 436.56 68.18 436.88L67.84 437.18C67.7733 437.247 67.7333 437.274 67.72 437.26C67.7067 437.247 67.7133 437.2 67.74 437.12ZM72.94 435.6C72.98 435.574 73 435.547 73 435.52C73 435.48 72.96 435.427 72.88 435.36C72.8133 435.28 72.7267 435.24 72.62 435.24C72.5133 435.227 72.4467 435.254 72.42 435.32C72.3933 435.374 72.42 435.447 72.5 435.54C72.5933 435.634 72.6667 435.68 72.72 435.68C72.7867 435.667 72.86 435.64 72.94 435.6ZM64.04 434.84C64.04 434.814 64.0933 434.7 64.2 434.5C64.24 434.42 64.32 434.314 64.44 434.18C64.5733 434.034 64.7067 433.9 64.84 433.78C65.36 433.314 65.6933 433.007 65.84 432.86C66 432.7 66.0667 432.6 66.04 432.56C66.0267 432.507 65.9533 432.434 65.82 432.34C65.6867 432.247 65.5267 432.147 65.34 432.04C64.9533 431.814 64.6733 431.627 64.5 431.48C64.34 431.334 64.26 431.2 64.26 431.08C64.26 431 64.2867 430.954 64.34 430.94C64.4067 430.914 64.52 430.92 64.68 430.96C64.84 430.987 65.08 431.054 65.4 431.16C66.1333 431.414 66.74 431.687 67.22 431.98C67.7 432.274 67.94 432.527 67.94 432.74C67.94 432.807 67.8933 432.874 67.8 432.94C67.7067 433.007 67.5267 433.107 67.26 433.24C66.8067 433.454 66.1667 433.787 65.34 434.24C64.5133 434.68 64.0867 434.9 64.06 434.9C64.0467 434.9 64.04 434.88 64.04 434.84ZM75.4 434.46C75.08 434.26 74.7133 434.04 74.3 433.8C73.82 433.52 73.4467 433.28 73.18 433.08C72.9133 432.867 72.7867 432.72 72.8 432.64C72.8133 432.52 72.9667 432.467 73.26 432.48C73.5533 432.494 73.9467 432.567 74.44 432.7C74.9467 432.834 75.3667 432.974 75.7 433.12C76.0467 433.267 76.28 433.414 76.4 433.56C76.4533 433.614 76.4867 433.674 76.5 433.74C76.5133 433.807 76.5133 433.887 76.5 433.98C76.4733 434.127 76.3933 434.294 76.26 434.48C76.14 434.654 76.04 434.74 75.96 434.74C75.8933 434.74 75.7067 434.647 75.4 434.46ZM71.06 430.5C71.06 430.42 71.14 430.294 71.3 430.12C71.46 429.947 71.6333 429.8 71.82 429.68C71.98 429.574 72.0333 429.48 71.98 429.4C71.94 429.32 71.8 429.24 71.56 429.16C70.84 428.934 70.44 428.727 70.36 428.54C70.32 428.434 70.32 428.334 70.36 428.24C70.4133 428.147 70.4933 428.1 70.6 428.1C70.76 428.1 71.0867 428.167 71.58 428.3C72.0867 428.434 72.4533 428.554 72.68 428.66C72.92 428.767 73.14 428.92 73.34 429.12C73.5533 429.307 73.6467 429.44 73.62 429.52C73.5933 429.6 73.4067 429.734 73.06 429.92C72.7267 430.107 72.3667 430.28 71.98 430.44C71.5933 430.6 71.34 430.68 71.22 430.68C71.1133 430.68 71.06 430.62 71.06 430.5ZM71.22 465.52C70.9933 465.387 70.7933 465.227 70.62 465.04C70.46 464.84 70.3467 464.654 70.28 464.48C70.24 464.36 70.22 464.267 70.22 464.2C70.2333 464.134 70.26 464.054 70.3 463.96C70.3533 463.867 70.3867 463.734 70.4 463.56C70.4267 463.374 70.44 463.094 70.44 462.72C70.44 462.107 70.42 461.627 70.38 461.28C70.3533 460.92 70.3067 460.74 70.24 460.74C70.2267 460.74 70.1533 460.814 70.02 460.96C69.9 461.107 69.7667 461.28 69.62 461.48C69.26 461.96 68.9467 462.354 68.68 462.66C68.4133 462.967 68.06 463.394 67.62 463.94C67.34 464.3 67.1467 464.534 67.04 464.64C66.9333 464.734 66.8267 464.78 66.72 464.78C66.6267 464.78 66.56 464.767 66.52 464.74C66.4933 464.714 66.4733 464.667 66.46 464.6C66.4333 464.387 66.52 464.074 66.72 463.66C66.92 463.234 67.26 462.667 67.74 461.96C68.98 460.08 69.6533 459.027 69.76 458.8C69.7867 458.734 69.78 458.667 69.74 458.6C69.7133 458.534 69.64 458.434 69.52 458.3C69.4267 458.194 69.3467 458.087 69.28 457.98C69.2133 457.874 69.1667 457.787 69.14 457.72C69.1267 457.64 69.1267 457.574 69.14 457.52C69.1533 457.467 69.2133 457.374 69.32 457.24L69.82 456.6C70.3267 455.96 70.6867 455.487 70.9 455.18C71.1267 454.874 71.2733 454.627 71.34 454.44C71.4333 454.2 71.5533 453.967 71.7 453.74C71.86 453.514 71.9733 453.4 72.04 453.4C72.0667 453.4 72.1067 453.434 72.16 453.5C72.2267 453.554 72.2867 453.62 72.34 453.7C72.46 453.887 72.5733 454.027 72.68 454.12C72.8 454.214 72.98 454.314 73.22 454.42C74.22 454.86 74.8667 455.274 75.16 455.66C75.2667 455.794 75.3333 456.02 75.36 456.34L75.4 456.8L75.84 457.02C76.0667 457.127 76.2733 457.274 76.46 457.46C76.66 457.647 76.76 457.8 76.76 457.92C76.76 457.947 76.6667 458.067 76.48 458.28C76.3067 458.494 76.0933 458.727 75.84 458.98C75.2267 459.607 74.8867 459.98 74.82 460.1C74.7667 460.207 74.76 460.287 74.8 460.34C74.84 460.394 75.0067 460.474 75.3 460.58C75.5933 460.687 75.9267 460.84 76.3 461.04C76.6867 461.227 77.2467 461.48 77.98 461.8C78.4867 462.027 78.9533 462.267 79.38 462.52C79.8067 462.76 80.0733 462.947 80.18 463.08C80.2467 463.16 80.28 463.274 80.28 463.42C80.28 463.527 80.26 463.594 80.22 463.62C80.1933 463.634 80.1067 463.64 79.96 463.64C79.7467 463.64 79.36 463.6 78.8 463.52C78.4667 463.467 78.18 463.407 77.94 463.34C77.7133 463.274 77.4 463.147 77 462.96C76.16 462.587 75.58 462.334 75.26 462.2C74.8867 462.04 74.6333 461.947 74.5 461.92C74.3667 461.88 74.2733 461.88 74.22 461.92C74.1667 461.947 74.02 462.154 73.78 462.54C73.5533 462.927 73.2933 463.4 73 463.96C72.72 464.467 72.4533 464.894 72.2 465.24C71.96 465.574 71.7933 465.74 71.7 465.74C71.6067 465.74 71.4467 465.667 71.22 465.52ZM65.7 464.2C65.4733 464.054 65.2 463.727 64.88 463.22C64.5733 462.714 64.3333 462.2 64.16 461.68C64.0533 461.36 63.9867 461.034 63.96 460.7C63.9333 460.367 63.9533 460.074 64.02 459.82L64.32 458.76C64.4 458.427 64.4467 458.2 64.46 458.08C64.4733 457.947 64.46 457.82 64.42 457.7C64.4067 457.62 64.3533 457.514 64.26 457.38C64.1667 457.234 64.0667 457.1 63.96 456.98C63.7067 456.687 63.5267 456.46 63.42 456.3C63.3133 456.14 63.26 456 63.26 455.88C63.26 455.76 63.34 455.62 63.5 455.46C63.66 455.287 63.7533 455.2 63.78 455.2C63.82 455.2 63.8733 455.294 63.94 455.48C64.0067 455.654 64.2867 455.974 64.78 456.44L65.54 457.16L65.5 457.64C65.4867 457.774 65.44 457.974 65.36 458.24C65.2933 458.494 65.22 458.734 65.14 458.96C64.9267 459.507 64.8 459.887 64.76 460.1C64.7333 460.3 64.7533 460.514 64.82 460.74C64.9 460.967 65.0067 461.2 65.14 461.44C65.2867 461.667 65.3933 461.767 65.46 461.74C65.4733 461.74 65.5267 461.614 65.62 461.36C65.7133 461.107 65.8067 460.814 65.9 460.48C66.0867 459.84 66.22 459.414 66.3 459.2C66.3933 458.987 66.4733 458.88 66.54 458.88C66.6067 458.88 66.6467 459 66.66 459.24C66.6867 459.467 66.6867 459.867 66.66 460.44C66.6333 460.934 66.58 461.494 66.5 462.12C66.42 462.734 66.3267 463.26 66.22 463.7C66.1267 464.127 66.0533 464.34 66 464.34C65.96 464.34 65.86 464.294 65.7 464.2ZM72.2 463.14C72.4533 462.82 72.6533 462.54 72.8 462.3C72.9467 462.047 73.02 461.867 73.02 461.76C73.02 461.68 72.98 461.587 72.9 461.48C72.82 461.374 72.6667 461.227 72.44 461.04L71.72 460.4C71.5733 460.28 71.48 460.22 71.44 460.22C71.4133 460.207 71.3867 460.234 71.36 460.3C71.3333 460.407 71.34 460.947 71.38 461.92C71.4333 462.88 71.48 463.407 71.52 463.5C71.56 463.594 71.5933 463.647 71.62 463.66C71.6467 463.674 71.6867 463.667 71.74 463.64C71.8333 463.574 71.9867 463.407 72.2 463.14ZM73.36 459.72C73.48 459.654 73.7 459.454 74.02 459.12C74.3533 458.774 74.6667 458.414 74.96 458.04C75.1333 457.814 75.2 457.64 75.16 457.52C75.1467 457.44 75.0267 457.307 74.8 457.12C74.5867 456.92 74.3667 456.754 74.14 456.62C74.06 456.567 73.98 456.547 73.9 456.56C73.8333 456.574 73.6867 456.634 73.46 456.74C73.1533 456.887 72.8933 457.054 72.68 457.24C72.4667 457.414 72.3267 457.587 72.26 457.76C72.1933 457.934 72.16 458.167 72.16 458.46C72.16 458.647 72.1733 458.794 72.2 458.9C72.2267 458.994 72.28 459.107 72.36 459.24C72.4533 459.36 72.58 459.487 72.74 459.62C72.9133 459.754 73.04 459.82 73.12 459.82C73.16 459.82 73.24 459.787 73.36 459.72ZM67.74 457.12C67.7667 457 67.8667 456.787 68.04 456.48C68.2267 456.16 68.36 455.954 68.44 455.86C68.4933 455.807 68.6867 455.52 69.02 455L69.66 454.02C69.7667 453.874 69.82 453.787 69.82 453.76C69.82 453.734 69.8933 453.6 70.04 453.36C70.2 453.107 70.28 452.967 70.28 452.94C70.28 452.914 70.2533 452.894 70.2 452.88C70.1467 452.867 70.08 452.86 70 452.86C69.8267 452.86 69.64 452.8 69.44 452.68C69.24 452.547 69.04 452.367 68.84 452.14C68.6533 451.9 68.5333 451.714 68.48 451.58C68.44 451.434 68.4467 451.314 68.5 451.22C68.6067 451.06 68.7467 450.987 68.92 451C69.1067 451.014 69.3533 451.114 69.66 451.3L70.06 451.56L71.6 450.94C72.1067 450.754 72.6 450.56 73.08 450.36C74.0267 449.947 74.62 449.74 74.86 449.74C74.98 449.74 75.1133 449.834 75.26 450.02L75.62 450.46C75.7133 450.58 75.7533 450.68 75.74 450.76C75.7267 450.827 75.6533 450.9 75.52 450.98C75.3867 451.06 75.1533 451.174 74.82 451.32C74.22 451.574 73.6067 451.814 72.98 452.04C72.3533 452.254 72.0067 452.38 71.94 452.42C71.8867 452.447 71.82 452.587 71.74 452.84C71.5933 453.267 71.28 453.84 70.8 454.56C70.3333 455.267 69.9667 455.72 69.7 455.92C69.54 456.054 69.3333 456.167 69.08 456.26C68.8267 456.354 68.5267 456.56 68.18 456.88L67.84 457.18C67.7733 457.247 67.7333 457.274 67.72 457.26C67.7067 457.247 67.7133 457.2 67.74 457.12ZM72.94 455.6C72.98 455.574 73 455.547 73 455.52C73 455.48 72.96 455.427 72.88 455.36C72.8133 455.28 72.7267 455.24 72.62 455.24C72.5133 455.227 72.4467 455.254 72.42 455.32C72.3933 455.374 72.42 455.447 72.5 455.54C72.5933 455.634 72.6667 455.68 72.72 455.68C72.7867 455.667 72.86 455.64 72.94 455.6ZM64.04 454.84C64.04 454.814 64.0933 454.7 64.2 454.5C64.24 454.42 64.32 454.314 64.44 454.18C64.5733 454.034 64.7067 453.9 64.84 453.78C65.36 453.314 65.6933 453.007 65.84 452.86C66 452.7 66.0667 452.6 66.04 452.56C66.0267 452.507 65.9533 452.434 65.82 452.34C65.6867 452.247 65.5267 452.147 65.34 452.04C64.9533 451.814 64.6733 451.627 64.5 451.48C64.34 451.334 64.26 451.2 64.26 451.08C64.26 451 64.2867 450.954 64.34 450.94C64.4067 450.914 64.52 450.92 64.68 450.96C64.84 450.987 65.08 451.054 65.4 451.16C66.1333 451.414 66.74 451.687 67.22 451.98C67.7 452.274 67.94 452.527 67.94 452.74C67.94 452.807 67.8933 452.874 67.8 452.94C67.7067 453.007 67.5267 453.107 67.26 453.24C66.8067 453.454 66.1667 453.787 65.34 454.24C64.5133 454.68 64.0867 454.9 64.06 454.9C64.0467 454.9 64.04 454.88 64.04 454.84ZM75.4 454.46C75.08 454.26 74.7133 454.04 74.3 453.8C73.82 453.52 73.4467 453.28 73.18 453.08C72.9133 452.867 72.7867 452.72 72.8 452.64C72.8133 452.52 72.9667 452.467 73.26 452.48C73.5533 452.494 73.9467 452.567 74.44 452.7C74.9467 452.834 75.3667 452.974 75.7 453.12C76.0467 453.267 76.28 453.414 76.4 453.56C76.4533 453.614 76.4867 453.674 76.5 453.74C76.5133 453.807 76.5133 453.887 76.5 453.98C76.4733 454.127 76.3933 454.294 76.26 454.48C76.14 454.654 76.04 454.74 75.96 454.74C75.8933 454.74 75.7067 454.647 75.4 454.46ZM71.06 450.5C71.06 450.42 71.14 450.294 71.3 450.12C71.46 449.947 71.6333 449.8 71.82 449.68C71.98 449.574 72.0333 449.48 71.98 449.4C71.94 449.32 71.8 449.24 71.56 449.16C70.84 448.934 70.44 448.727 70.36 448.54C70.32 448.434 70.32 448.334 70.36 448.24C70.4133 448.147 70.4933 448.1 70.6 448.1C70.76 448.1 71.0867 448.167 71.58 448.3C72.0867 448.434 72.4533 448.554 72.68 448.66C72.92 448.767 73.14 448.92 73.34 449.12C73.5533 449.307 73.6467 449.44 73.62 449.52C73.5933 449.6 73.4067 449.734 73.06 449.92C72.7267 450.107 72.3667 450.28 71.98 450.44C71.5933 450.6 71.34 450.68 71.22 450.68C71.1133 450.68 71.06 450.62 71.06 450.5ZM68.98 485.14C68.6867 484.98 68.42 484.8 68.18 484.6C67.94 484.387 67.7667 484.187 67.66 484C67.5133 483.747 67.4333 483.554 67.42 483.42C67.42 483.287 67.4867 483.12 67.62 482.92C67.82 482.6 67.9867 482.16 68.12 481.6C68.16 481.454 68.2 480.847 68.24 479.78C68.2933 478.714 68.3067 478.12 68.28 478C68.2667 477.934 68.2467 477.88 68.22 477.84C68.1933 477.8 68.1667 477.78 68.14 477.78C68.0333 477.78 67.7267 477.92 67.22 478.2C66.7133 478.467 66.3867 478.674 66.24 478.82C66.0267 479.02 65.8867 479.1 65.82 479.06C65.7533 479.02 65.52 478.854 65.12 478.56C64.7333 478.267 64.4267 477.994 64.2 477.74C63.9867 477.474 63.88 477.254 63.88 477.08C63.88 476.987 63.8867 476.927 63.9 476.9C63.9267 476.86 63.9867 476.84 64.08 476.84C64.1333 476.84 64.2267 476.867 64.36 476.92C64.5067 476.974 64.66 477.04 64.82 477.12C65.18 477.307 65.4 477.4 65.48 477.4C65.56 477.4 65.7533 477.287 66.06 477.06C66.5267 476.727 66.96 476.44 67.36 476.2C67.76 475.96 68.0267 475.827 68.16 475.8C68.32 475.76 68.4 475.72 68.4 475.68C68.4 475.627 68.34 475.527 68.22 475.38C68.1667 475.314 68.12 475.24 68.08 475.16C68.04 475.08 68.02 475.02 68.02 474.98C68.02 474.927 68.0467 474.854 68.1 474.76C68.1533 474.667 68.2133 474.574 68.28 474.48L68.56 474.18V472.8C68.56 471.867 68.5267 471.314 68.46 471.14C68.4067 470.954 68.2267 470.627 67.92 470.16C67.7867 469.96 67.68 469.78 67.6 469.62C67.52 469.46 67.48 469.354 67.48 469.3C67.5067 469.167 67.6 469.114 67.76 469.14C67.9333 469.167 68.1933 469.28 68.54 469.48C68.94 469.707 69.3133 469.974 69.66 470.28C70.0067 470.587 70.22 470.847 70.3 471.06C70.38 471.26 70.44 471.514 70.48 471.82C70.5067 472.007 70.5067 472.16 70.48 472.28C70.4667 472.387 70.4333 472.514 70.38 472.66C70.2733 472.9 70.2067 473.08 70.18 473.2C70.1667 473.307 70.1867 473.374 70.24 473.4C70.3067 473.414 70.4533 473.287 70.68 473.02C70.92 472.74 71.1533 472.427 71.38 472.08C71.7267 471.547 71.9667 471.154 72.1 470.9C72.2467 470.634 72.32 470.427 72.32 470.28C72.3333 470.134 72.2867 469.994 72.18 469.86C72.0733 469.714 72.0133 469.594 72 469.5C72 469.394 72.0467 469.314 72.14 469.26C72.2467 469.207 72.4533 469.18 72.76 469.18C72.9467 469.18 73.0933 469.2 73.2 469.24C73.3067 469.267 73.4267 469.32 73.56 469.4C73.7733 469.534 74.0067 469.74 74.26 470.02C74.5267 470.287 74.66 470.46 74.66 470.54C74.66 470.607 74.6 470.714 74.48 470.86C74.3733 470.994 74.0667 471.347 73.56 471.92C73.1733 472.374 72.7933 472.814 72.42 473.24C72.2067 473.494 72 473.707 71.8 473.88C71.6133 474.04 71.3533 474.234 71.02 474.46C70.4467 474.834 70.1267 475.067 70.06 475.16C70.0067 475.214 69.98 475.254 69.98 475.28C69.98 475.307 70 475.334 70.04 475.36C70.12 475.414 70.3467 475.38 70.72 475.26C71.1067 475.127 71.7533 474.874 72.66 474.5C73.0733 474.34 73.4933 474.2 73.92 474.08C74.3467 473.947 74.64 473.88 74.8 473.88C74.92 473.88 75.04 473.914 75.16 473.98C75.28 474.034 75.4133 474.134 75.56 474.28C75.7067 474.427 75.8133 474.56 75.88 474.68C75.92 474.76 75.94 474.827 75.94 474.88C75.9533 474.92 75.94 474.96 75.9 475C75.8733 475.04 75.7933 475.094 75.66 475.16C75.5267 475.214 75.38 475.267 75.22 475.32C74.4867 475.547 73.58 475.854 72.5 476.24C71.42 476.627 70.8267 476.847 70.72 476.9C70.56 476.994 70.4733 477.12 70.46 477.28C70.4467 477.374 70.4533 477.454 70.48 477.52C70.52 477.587 70.5867 477.674 70.68 477.78C70.9733 478.06 71.4667 478.4 72.16 478.8C72.8533 479.2 73.5267 479.534 74.18 479.8L75.34 480.28C75.7133 480.427 76.22 480.6 76.86 480.8C77.3667 480.947 77.7733 481.087 78.08 481.22C78.3867 481.354 78.6467 481.507 78.86 481.68C79.0333 481.814 79.22 482.047 79.42 482.38C79.6333 482.7 79.7333 482.92 79.72 483.04C79.7067 483.16 79.5933 483.24 79.38 483.28C79.18 483.32 78.8533 483.314 78.4 483.26C77.9067 483.22 77.56 483.207 77.36 483.22C77.2267 483.247 77.0933 483.24 76.96 483.2C76.8267 483.147 76.6067 483.04 76.3 482.88C75.7933 482.627 75.4133 482.407 75.16 482.22C74.6533 481.86 73.7867 481.374 72.56 480.76C72.3333 480.64 72.0933 480.507 71.84 480.36C71.6 480.2 71.42 480.074 71.3 479.98C71.0333 479.754 70.7 479.5 70.3 479.22C69.9133 478.94 69.6867 478.8 69.62 478.8C69.5533 478.8 69.5 479.147 69.46 479.84C69.3667 481.387 69.3733 482.18 69.48 482.22C69.5067 482.22 69.5733 482.187 69.68 482.12C69.7867 482.04 69.9 481.947 70.02 481.84C70.1533 481.72 70.32 481.587 70.52 481.44C70.7333 481.294 70.92 481.18 71.08 481.1C71.4533 480.874 71.6467 480.767 71.66 480.78C71.6867 480.794 71.64 480.934 71.52 481.2C71.4133 481.454 71.28 481.8 71.12 482.24C70.9733 482.667 70.78 483.127 70.54 483.62L69.96 484.88C69.8667 485.067 69.7933 485.194 69.74 485.26C69.7 485.327 69.64 485.36 69.56 485.36C69.44 485.36 69.2467 485.287 68.98 485.14ZM67.08 504.68C66.4267 504.294 65.9067 503.76 65.52 503.08C65.1467 502.4 64.92 501.6 64.84 500.68C64.8133 500.28 64.84 499.774 64.92 499.16C65 498.68 65.04 498.34 65.04 498.14C65.04 497.887 64.9933 497.647 64.9 497.42C64.8333 497.234 64.68 496.947 64.44 496.56C64.28 496.307 64.1467 496.074 64.04 495.86C63.9333 495.634 63.88 495.494 63.88 495.44C63.88 495.334 63.9133 495.227 63.98 495.12C64.0467 495.014 64.1133 494.96 64.18 494.96C64.1933 494.96 64.24 495.007 64.32 495.1C64.4 495.18 64.48 495.274 64.56 495.38C64.8667 495.794 65.2733 496.147 65.78 496.44C65.9933 496.574 66.1333 496.707 66.2 496.84C66.28 496.974 66.3 497.154 66.26 497.38C66.2333 497.594 66.1267 497.98 65.94 498.54C65.86 498.78 65.7867 499.034 65.72 499.3C65.6667 499.554 65.6333 499.754 65.62 499.9C65.58 500.46 65.7 501.067 65.98 501.72C66.1267 502.027 66.24 502.167 66.32 502.14C66.4 502.114 66.5 501.894 66.62 501.48C66.7133 501.134 66.8667 500.64 67.08 500C67.3067 499.36 67.5 498.84 67.66 498.44C67.8333 498.027 68.08 497.527 68.4 496.94C68.72 496.34 68.88 496.02 68.88 495.98C68.88 495.94 68.92 495.887 69 495.82C69.04 495.78 69.0667 495.767 69.08 495.78C69.0933 495.794 69.1 495.84 69.1 495.92C69.1 495.987 69.06 496.147 68.98 496.4C68.9133 496.64 68.84 496.854 68.76 497.04C68.5467 497.52 68.3467 498.034 68.16 498.58C68.08 498.847 67.9933 499.2 67.9 499.64C67.82 500.067 67.78 500.36 67.78 500.52C67.78 500.6 67.7933 500.66 67.82 500.7C67.86 500.727 67.9267 500.754 68.02 500.78C68.2467 500.82 68.4733 500.827 68.7 500.8C68.94 500.774 69.3467 500.694 69.92 500.56C70.6533 500.374 71.1533 500.267 71.42 500.24C71.7 500.2 71.88 500.154 71.96 500.1C71.9867 500.074 72.02 499.98 72.06 499.82C72.1133 499.647 72.1533 499.447 72.18 499.22C72.2733 498.7 72.4533 497.914 72.72 496.86L73.12 495.28L72.94 495.08C72.8867 495.027 72.7667 494.954 72.58 494.86C72.4067 494.767 72.2133 494.687 72 494.62C71.5067 494.42 71.1267 494.26 70.86 494.14C70.5933 494.02 70.3533 493.847 70.14 493.62C69.94 493.394 69.82 493.187 69.78 493C69.7533 492.8 69.76 492.694 69.8 492.68C69.84 492.654 70.04 492.7 70.4 492.82C70.8533 492.98 71.3267 493.04 71.82 493C72.3267 492.947 73.0667 492.787 74.04 492.52C74.32 492.44 74.5933 492.374 74.86 492.32C75.1267 492.267 75.3133 492.24 75.42 492.24C75.6867 492.24 75.9667 492.3 76.26 492.42C76.5533 492.527 76.7933 492.667 76.98 492.84L77.28 493.1L77.08 493.26C76.7867 493.5 76.16 493.64 75.2 493.68C74.5733 493.707 74.1267 493.74 73.86 493.78C73.6067 493.807 73.48 493.847 73.48 493.9C73.48 493.94 73.54 494.014 73.66 494.12C73.7933 494.227 74.0267 494.394 74.36 494.62C74.4933 494.714 74.6133 494.807 74.72 494.9C74.84 494.994 74.9067 495.06 74.92 495.1C74.9333 495.127 74.9267 495.18 74.9 495.26C74.8867 495.327 74.86 495.394 74.82 495.46C74.6067 495.807 74.34 496.5 74.02 497.54C73.7133 498.567 73.56 499.254 73.56 499.6C73.56 499.747 73.5667 499.834 73.58 499.86C73.6067 499.887 73.66 499.887 73.74 499.86C73.9 499.82 74.2933 499.767 74.92 499.7C75.56 499.62 76.06 499.567 76.42 499.54C76.9133 499.5 77.3733 499.514 77.8 499.58C78.24 499.647 78.6067 499.754 78.9 499.9C79.1933 500.047 79.4667 500.227 79.72 500.44C79.9867 500.654 80.1733 500.854 80.28 501.04C80.3867 501.214 80.4467 501.427 80.46 501.68C80.4733 501.934 80.4333 502.114 80.34 502.22C80.2733 502.274 80.2133 502.3 80.16 502.3C80.1067 502.3 79.9867 502.28 79.8 502.24C79.52 502.174 79.18 502.067 78.78 501.92C78.3933 501.76 78.02 501.647 77.66 501.58C77.3133 501.5 76.82 501.427 76.18 501.36C75.2733 501.294 74.3867 501.3 73.52 501.38C72.6667 501.447 71.6333 501.614 70.42 501.88C69.5933 502.067 69.0733 502.16 68.86 502.16C68.4733 502.16 68.1533 502 67.9 501.68C67.8467 501.6 67.7933 501.547 67.74 501.52C67.7 501.48 67.6667 501.467 67.64 501.48C67.5867 501.534 67.56 501.92 67.56 502.64C67.56 503.36 67.58 503.874 67.62 504.18C67.6867 504.567 67.7333 504.794 67.76 504.86C67.8267 505.047 67.6 504.987 67.08 504.68ZM65.12 494.16C65.12 494.014 65.52 493.66 66.32 493.1C66.7733 492.78 67 492.574 67 492.48C67 492.44 66.9267 492.34 66.78 492.18C66.6467 492.007 66.48 491.827 66.28 491.64C65.8667 491.254 65.5667 490.954 65.38 490.74C65.2067 490.527 65.12 490.38 65.12 490.3C65.12 490.26 65.1333 490.234 65.16 490.22C65.2 490.207 65.26 490.214 65.34 490.24C65.5 490.28 65.9 490.46 66.54 490.78C67.18 491.087 67.6333 491.32 67.9 491.48C68.1933 491.667 68.52 491.934 68.88 492.28C69.24 492.627 69.42 492.847 69.42 492.94C69.42 493.007 69.3733 493.047 69.28 493.06C69.2 493.074 68.9733 493.08 68.6 493.08C68.24 493.067 67.9867 493.074 67.84 493.1C67.7067 493.127 67.4933 493.207 67.2 493.34C66.7867 493.527 66.3667 493.727 65.94 493.94C65.5133 494.154 65.2667 494.26 65.2 494.26C65.1467 494.26 65.12 494.227 65.12 494.16ZM71.72 525.36C71.0533 524.934 70.6267 524.654 70.44 524.52C70.2533 524.374 69.9867 524.174 69.64 523.92C69.3067 523.667 68.9467 523.354 68.56 522.98C68.3067 522.74 68.14 522.6 68.06 522.56C67.9933 522.507 67.96 522.52 67.96 522.6C67.9333 522.707 67.94 522.927 67.98 523.26C68.0333 523.58 68.04 523.8 68 523.92C67.96 524.04 67.8733 524.1 67.74 524.1C67.66 524.1 67.5533 524.06 67.42 523.98C67.3 523.887 67.1267 523.727 66.9 523.5C66.4867 523.1 66.2067 522.794 66.06 522.58C65.9133 522.367 65.7733 522.1 65.64 521.78C65.52 521.447 65.4333 521.147 65.38 520.88C65.34 520.614 65.3467 520.46 65.4 520.42C65.4667 520.38 65.5467 520.407 65.64 520.5C65.7333 520.594 65.9133 520.807 66.18 521.14C66.4067 521.434 66.5867 521.654 66.72 521.8C66.8667 521.934 67.0133 522.04 67.16 522.12C67.32 522.2 67.4267 522.214 67.48 522.16C67.5333 522.107 67.5667 521.974 67.58 521.76C67.58 521.614 67.5867 521.52 67.6 521.48C67.6267 521.44 67.6733 521.427 67.74 521.44C67.8467 521.454 68.0067 521.56 68.22 521.76C68.6067 522.12 69.0733 522.474 69.62 522.82C70.1667 523.167 70.5733 523.374 70.84 523.44C70.9733 523.467 71.0667 523.447 71.12 523.38C71.1733 523.3 71.2133 523.114 71.24 522.82C71.2533 522.567 71.2667 522.114 71.28 521.46C71.3067 520.354 71.3 519.527 71.26 518.98L71.22 518.42C71.2067 518.314 71.1867 518.247 71.16 518.22C71.1333 518.194 71.0933 518.194 71.04 518.22C70.92 518.247 70.68 518.367 70.32 518.58C69.8667 518.86 69.4333 519.1 69.02 519.3C68.6067 519.487 68.3333 519.58 68.2 519.58C68.04 519.58 67.8533 519.494 67.64 519.32C67.44 519.134 67.2133 518.874 66.96 518.54C66.72 518.207 66.6 517.987 66.6 517.88C66.6 517.774 66.7533 517.607 67.06 517.38C67.18 517.287 67.32 517.154 67.48 516.98C67.6533 516.807 67.7933 516.647 67.9 516.5C68.1133 516.22 68.4067 515.74 68.78 515.06C69.1667 514.367 69.3467 514.007 69.32 513.98C69.2933 513.954 69.0333 513.974 68.54 514.04C68.18 514.08 67.9467 514.1 67.84 514.1C67.7333 514.087 67.5733 514.04 67.36 513.96C67.0933 513.854 66.7667 513.68 66.38 513.44C66.0067 513.187 65.7133 512.967 65.5 512.78C65.3533 512.634 65.2467 512.507 65.18 512.4C65.1267 512.294 65.1333 512.24 65.2 512.24C65.28 512.24 65.5133 512.307 65.9 512.44C66.06 512.494 66.2467 512.547 66.46 512.6C66.6867 512.64 66.8733 512.667 67.02 512.68C67.22 512.694 67.3933 512.694 67.54 512.68C67.7 512.667 67.8867 512.62 68.1 512.54C68.4867 512.434 68.88 512.28 69.28 512.08C69.52 511.947 69.7067 511.834 69.84 511.74C69.9733 511.634 70.1067 511.494 70.24 511.32C70.4667 511.04 70.6467 510.76 70.78 510.48C70.9133 510.187 70.98 509.947 70.98 509.76C70.98 509.574 70.8867 509.314 70.7 508.98C70.3667 508.38 70.3667 508.06 70.7 508.02C70.7533 508.02 70.8333 508.034 70.94 508.06C71.06 508.087 71.1667 508.127 71.26 508.18C71.4733 508.274 71.7333 508.467 72.04 508.76C72.36 509.054 72.5933 509.32 72.74 509.56C72.8333 509.694 72.8867 509.8 72.9 509.88C72.9267 509.96 72.9267 510.074 72.9 510.22C72.8733 510.367 72.8667 510.454 72.88 510.48C72.8933 510.507 72.9467 510.507 73.04 510.48C73.2267 510.414 73.3667 510.387 73.46 510.4C73.5533 510.4 73.66 510.44 73.78 510.52C73.8867 510.587 74.08 510.747 74.36 511C74.5733 511.174 74.7533 511.34 74.9 511.5C75.0467 511.647 75.12 511.74 75.12 511.78C75.12 511.86 75.04 511.92 74.88 511.96C74.6133 512.027 74.0333 512.2 73.14 512.48C72.26 512.76 71.76 512.934 71.64 513C71.36 513.147 71.2667 513.294 71.36 513.44C71.4 513.507 71.7267 513.86 72.34 514.5C72.5933 514.754 72.82 514.974 73.02 515.16C73.2333 515.347 73.36 515.44 73.4 515.44C73.48 515.44 73.5667 515.4 73.66 515.32C73.7267 515.28 73.7867 515.26 73.84 515.26C73.9067 515.26 74.0267 515.287 74.2 515.34C74.4533 515.407 74.7267 515.534 75.02 515.72C75.3267 515.894 75.6067 516.1 75.86 516.34C76.1133 516.567 76.2267 516.72 76.2 516.8C76.1867 516.88 76.12 516.927 76 516.94C75.88 516.954 75.56 516.96 75.04 516.96C74.5333 516.96 74.1933 516.974 74.02 517C73.8467 517.014 73.6533 517.067 73.44 517.16L72.98 517.36L72.84 518.56C72.7333 519.374 72.68 520.44 72.68 521.76C72.68 522.307 72.6867 522.847 72.7 523.38C72.7267 523.914 72.7533 524.274 72.78 524.46L72.9 525.52C72.9267 525.734 72.9333 525.867 72.92 525.92C72.92 525.96 72.8933 525.98 72.84 525.98C72.7733 525.98 72.4 525.774 71.72 525.36ZM78.72 523.62C78.5733 523.554 78.4533 523.52 78.36 523.52C78.2667 523.507 78.1067 523.52 77.88 523.56C77.7333 523.587 77.6067 523.607 77.5 523.62C77.3933 523.62 77.3267 523.607 77.3 523.58C77.2733 523.54 77.2133 523.38 77.12 523.1C77.04 522.807 76.9133 522.594 76.74 522.46C76.6333 522.367 76.56 522.294 76.52 522.24C76.4933 522.187 76.4933 522.12 76.52 522.04C76.5333 521.907 76.5067 521.8 76.44 521.72C76.3733 521.64 76.2667 521.6 76.12 521.6C76.04 521.6 75.9533 521.574 75.86 521.52C75.78 521.467 75.6667 521.367 75.52 521.22C75.4267 521.127 75.3 521.02 75.14 520.9C74.9933 520.767 74.86 520.667 74.74 520.6C74.5267 520.494 74.3267 520.36 74.14 520.2C73.9667 520.04 73.92 519.96 74 519.96C74.0933 519.96 74.3733 520.027 74.84 520.16C75.32 520.28 75.6133 520.367 75.72 520.42C75.8667 520.5 76.08 520.56 76.36 520.6C76.6533 520.64 76.96 520.7 77.28 520.78L78.1 521.02C78.26 521.06 78.3667 521.114 78.42 521.18C78.4867 521.234 78.58 521.374 78.7 521.6C78.8733 521.92 79 522.307 79.08 522.76L79.18 523.44C79.2067 523.574 79.2133 523.66 79.2 523.7C79.2 523.727 79.18 523.747 79.14 523.76C79.1 523.774 78.96 523.727 78.72 523.62ZM69.42 517.4C69.74 517.294 70.12 517.134 70.56 516.92C71.0133 516.694 71.2867 516.507 71.38 516.36C71.4733 516.2 71.52 515.987 71.52 515.72C71.5333 515.454 71.4933 515.254 71.4 515.12C71.28 514.947 71.1533 514.8 71.02 514.68C70.9 514.56 70.8 514.5 70.72 514.5C70.6533 514.5 70.3667 514.84 69.86 515.52C69.3667 516.187 69.0267 516.7 68.84 517.06C68.7733 517.194 68.74 517.307 68.74 517.4C68.7533 517.494 68.7867 517.54 68.84 517.54C68.9067 517.54 69.1 517.494 69.42 517.4ZM76.16 545C75.7467 544.947 75.2733 544.86 74.74 544.74C74.22 544.62 73.8 544.5 73.48 544.38C73.2533 544.3 72.6933 544.134 71.8 543.88C70.8133 543.587 69.94 543.387 69.18 543.28C68.42 543.16 67.18 543.047 65.46 542.94C64.6867 542.887 64.1667 542.834 63.9 542.78C63.5133 542.7 63.1733 542.534 62.88 542.28C62.6 542.027 62.46 541.774 62.46 541.52C62.46 541.427 62.4733 541.367 62.5 541.34C62.5267 541.314 62.5733 541.3 62.64 541.3C62.7467 541.3 62.94 541.38 63.22 541.54C63.34 541.607 63.4733 541.667 63.62 541.72C63.78 541.774 63.9133 541.807 64.02 541.82C64.2333 541.847 64.5133 541.834 64.86 541.78C65.22 541.714 65.4533 541.647 65.56 541.58C65.6133 541.54 65.64 541.5 65.64 541.46C65.64 541.42 65.62 541.347 65.58 541.24C65.54 541.134 65.46 540.954 65.34 540.7C65.06 540.127 64.8733 539.68 64.78 539.36C64.6867 539.027 64.62 538.627 64.58 538.16C64.5533 537.787 64.52 537.527 64.48 537.38C64.44 537.22 64.3467 536.994 64.2 536.7C64.1067 536.527 64.0267 536.36 63.96 536.2C63.9067 536.04 63.88 535.927 63.88 535.86C63.88 535.78 63.8933 535.734 63.92 535.72C63.9467 535.694 64 535.68 64.08 535.68C64.2133 535.68 64.3933 535.794 64.62 536.02C64.7267 536.127 64.82 536.214 64.9 536.28C64.9933 536.334 65.0533 536.36 65.08 536.36C65.1333 536.334 65.1933 536.24 65.26 536.08C65.34 535.907 65.4 535.82 65.44 535.82C65.48 535.82 65.5533 535.887 65.66 536.02C65.7667 536.154 65.82 536.307 65.82 536.48C65.8333 536.64 65.7933 536.88 65.7 537.2C65.62 537.507 65.5867 537.82 65.6 538.14C65.6133 538.447 65.6667 538.727 65.76 538.98C65.8667 539.274 66.0733 539.654 66.38 540.12C66.6733 540.56 66.86 540.867 66.94 541.04C67.0333 541.214 67.08 541.367 67.08 541.5C67.08 541.62 67.1067 541.7 67.16 541.74C67.2133 541.767 67.8133 541.867 68.96 542.04L69.38 542.1C70.0867 542.22 70.5467 542.3 70.76 542.34C70.9733 542.38 71.38 542.474 71.98 542.62L72.32 542.7C73.1733 542.914 73.7933 543.04 74.18 543.08C75.3 543.227 75.8867 543.26 75.94 543.18C75.9933 543.1 75.8467 542.587 75.5 541.64C75.4067 541.387 75.3467 541.2 75.32 541.08C75.2933 540.92 75.2667 540.687 75.24 540.38C75.2267 540.167 75.2133 539.707 75.2 539C75.16 537.694 75.14 536.894 75.14 536.6C75.1267 536.4 75.1067 536.28 75.08 536.24C75.0667 536.187 75.0067 536.187 74.9 536.24C74.8333 536.267 74.6667 536.374 74.4 536.56C74.2267 536.667 74.0933 536.767 74 536.86C73.92 536.954 73.8533 537.067 73.8 537.2C73.7067 537.414 73.58 537.907 73.42 538.68C73.3 539.294 73.18 539.76 73.06 540.08C72.9533 540.4 72.82 540.674 72.66 540.9C72.5533 541.02 72.48 541.087 72.44 541.1C72.4133 541.114 72.3533 541.087 72.26 541.02C72.1267 540.94 72.02 540.907 71.94 540.92C71.9133 540.934 71.8667 540.98 71.8 541.06C71.7333 541.14 71.6667 541.234 71.6 541.34C71.4667 541.594 71.3333 541.754 71.2 541.82C71.08 541.874 70.8867 541.867 70.62 541.8C70.3667 541.72 69.82 541.474 68.98 541.06C68.14 540.634 67.6467 540.36 67.5 540.24C67.3667 540.107 67.3067 539.98 67.32 539.86C67.3333 539.794 67.3733 539.747 67.44 539.72C67.5067 539.68 67.6333 539.64 67.82 539.6C68.0467 539.547 68.26 539.527 68.46 539.54C68.6733 539.54 68.9533 539.567 69.3 539.62L69.6 539.68L69.54 539.3C69.5 539.047 69.4533 538.887 69.4 538.82C69.3467 538.754 69.24 538.727 69.08 538.74C68.9333 538.74 68.6867 538.787 68.34 538.88C67.94 538.974 67.5867 539.04 67.28 539.08C67.08 539.094 66.94 539.094 66.86 539.08C66.78 539.067 66.6933 539.027 66.6 538.96C66.48 538.867 66.3733 538.734 66.28 538.56C66.1867 538.374 66.1533 538.24 66.18 538.16C66.1933 538.12 66.2667 538.074 66.4 538.02C66.5333 537.954 66.6867 537.887 66.86 537.82C67.2867 537.687 67.6667 537.54 68 537.38C68.3467 537.207 68.6067 537.047 68.78 536.9C68.9533 536.74 69.1133 536.554 69.26 536.34C69.3667 536.18 69.46 535.98 69.54 535.74C69.6333 535.487 69.66 535.347 69.62 535.32C69.5933 535.28 69.38 535.254 68.98 535.24C68.4333 535.227 67.98 535.14 67.62 534.98C67.26 534.807 67 534.574 66.84 534.28C66.7467 534.08 66.78 533.927 66.94 533.82C67.1 533.7 67.3733 533.64 67.76 533.64C68.04 533.64 68.2867 533.614 68.5 533.56C68.7267 533.507 68.98 533.38 69.26 533.18C69.5533 532.98 69.7467 532.794 69.84 532.62C69.92 532.5 69.9667 532.367 69.98 532.22C69.9933 532.06 70 531.74 70 531.26C70 530.727 69.9867 530.387 69.96 530.24C69.9467 530.094 69.8733 529.88 69.74 529.6C69.5667 529.2 69.5067 528.934 69.56 528.8C69.6133 528.667 69.7733 528.68 70.04 528.84C70.16 528.92 70.3267 529.087 70.54 529.34C70.7533 529.594 70.9133 529.814 71.02 530C71.06 530.08 71.1 530.207 71.14 530.38C71.18 530.54 71.2133 530.694 71.24 530.84C71.28 531.227 71.32 531.52 71.36 531.72L71.42 532.04H71.94C72.18 532.04 72.34 532.054 72.42 532.08C72.5133 532.094 72.6067 532.147 72.7 532.24C72.8467 532.387 73.0867 532.574 73.42 532.8C73.7533 533.014 73.9733 533.174 74.08 533.28C74.1867 533.374 74.2467 533.5 74.26 533.66C74.2733 533.82 74.2333 534.034 74.14 534.3C74.06 534.514 74.0333 534.654 74.06 534.72C74.0867 534.774 74.2 534.774 74.4 534.72C74.5467 534.68 74.8533 534.574 75.32 534.4C76.0667 534.094 76.5133 533.887 76.66 533.78C76.7533 533.714 76.8067 533.654 76.82 533.6C76.8333 533.534 76.8267 533.414 76.8 533.24C76.7733 533.067 76.7667 532.96 76.78 532.92C76.7933 532.88 76.8333 532.86 76.9 532.86C77.0067 532.86 77.1933 532.954 77.46 533.14C77.74 533.314 78.0067 533.527 78.26 533.78C78.4333 533.94 78.5467 534.06 78.6 534.14C78.6533 534.22 78.6667 534.28 78.64 534.32C78.5733 534.387 78.4867 534.44 78.38 534.48C78.2733 534.507 77.9333 534.68 77.36 535C76.7867 535.307 76.48 535.487 76.44 535.54C76.4133 535.58 76.3933 536.22 76.38 537.46C76.38 538.687 76.4133 539.667 76.48 540.4C76.56 541.134 76.6133 541.794 76.64 542.38C76.68 542.967 76.72 543.274 76.76 543.3C76.8 543.314 77.0933 543.34 77.64 543.38C78.0267 543.407 78.2733 543.414 78.38 543.4C78.4867 543.387 78.5933 543.34 78.7 543.26L78.94 543.1L79.2 543.3C79.3733 543.434 79.54 543.534 79.7 543.6C79.8733 543.667 80.0667 543.8 80.28 544C80.4933 544.2 80.5933 544.354 80.58 544.46C80.5667 544.567 80.44 544.64 80.2 544.68C79.9733 544.72 79.58 544.807 79.02 544.94C78.5533 545.047 78.1133 545.107 77.7 545.12C77.2867 545.12 76.7733 545.08 76.16 545ZM71.66 540.04C71.6867 539.92 71.7333 539.794 71.8 539.66C71.8667 539.527 72.0067 538.887 72.22 537.74C72.3933 536.847 72.5 536.147 72.54 535.64C72.5933 535.134 72.58 534.867 72.5 534.84C72.4733 534.827 72.4267 534.84 72.36 534.88C72.3067 534.92 72.2533 534.967 72.2 535.02C71.9733 535.26 71.72 535.58 71.44 535.98C71.16 536.38 70.98 536.687 70.9 536.9C70.82 537.1 70.7667 537.294 70.74 537.48C70.7267 537.667 70.72 538.027 70.72 538.56C70.72 539.094 70.7267 539.447 70.74 539.62C70.7533 539.78 70.7933 539.914 70.86 540.02C70.9667 540.18 71.0733 540.287 71.18 540.34C71.2867 540.394 71.3867 540.394 71.48 540.34C71.5733 540.274 71.6333 540.174 71.66 540.04ZM71.82 534.58C72.0333 534.394 72.2 534.28 72.32 534.24C72.4533 534.187 72.5733 534.194 72.68 534.26C72.7867 534.314 72.8667 534.32 72.92 534.28C72.9867 534.227 73.02 534.134 73.02 534C73.02 533.827 72.94 533.634 72.78 533.42C72.62 533.207 72.48 533.1 72.36 533.1C72.3067 533.1 72.22 533.127 72.1 533.18C71.9933 533.22 71.8867 533.274 71.78 533.34C71.5133 533.487 71.3267 533.667 71.22 533.88C71.1267 534.094 71.06 534.3 71.02 534.5C70.98 534.7 70.98 534.854 71.02 534.96C71.0467 535.027 71.0733 535.067 71.1 535.08C71.1267 535.094 71.1667 535.08 71.22 535.04C71.3133 534.987 71.5133 534.834 71.82 534.58ZM65.08 534.88C65.04 534.827 65.02 534.707 65.02 534.52C65.0333 534.32 65.0667 534.094 65.12 533.84C65.1867 533.547 65.2 533.307 65.16 533.12C65.1467 533.054 65.1067 532.954 65.04 532.82C64.9733 532.674 64.9 532.54 64.82 532.42C64.6333 532.127 64.52 531.92 64.48 531.8C64.44 531.667 64.46 531.587 64.54 531.56C64.62 531.52 64.7467 531.547 64.92 531.64C65.0933 531.72 65.2867 531.854 65.5 532.04C65.66 532.187 65.8267 532.414 66 532.72C66.1733 533.027 66.2867 533.307 66.34 533.56C66.3667 533.68 66.36 533.774 66.32 533.84C66.28 533.907 66.16 534.034 65.96 534.22C65.68 534.487 65.5133 534.674 65.46 534.78C65.4067 534.887 65.34 534.954 65.26 534.98C65.18 534.994 65.12 534.96 65.08 534.88ZM73.56 532.34C73.48 532.274 73.4333 532.22 73.42 532.18C73.42 532.127 73.44 532.04 73.48 531.92C73.4933 531.854 73.5067 531.767 73.52 531.66C73.5333 531.554 73.5333 531.454 73.52 531.36C73.4933 531.227 73.4867 531.147 73.5 531.12C73.5267 531.08 73.5867 531.047 73.68 531.02C73.84 530.994 74.0067 530.94 74.18 530.86C74.3267 530.794 74.5133 530.68 74.74 530.52C74.9667 530.347 75.0867 530.24 75.1 530.2C75.1267 530.147 75.2 530.06 75.32 529.94C75.4533 529.82 75.5733 529.767 75.68 529.78C75.8 529.78 76.02 529.854 76.34 530C76.66 530.147 76.9533 530.314 77.22 530.5C77.4867 530.687 77.62 530.827 77.62 530.92C77.62 531 77.4533 531.134 77.12 531.32C76.8 531.507 76.4467 531.667 76.06 531.8C75.6733 531.92 75.32 532.047 75 532.18C74.68 532.314 74.3933 532.4 74.14 532.44C73.98 532.454 73.86 532.454 73.78 532.44C73.7133 532.427 73.64 532.394 73.56 532.34ZM71.42 565.02C70.9267 564.78 70.3867 564.387 69.8 563.84C69.3333 563.387 68.9267 562.934 68.58 562.48C68.2467 562.014 67.8867 561.414 67.5 560.68C67.4467 560.574 67.3867 560.487 67.32 560.42C67.2667 560.34 67.22 560.307 67.18 560.32C67.1533 560.32 67.08 560.467 66.96 560.76C66.84 561.04 66.6933 561.334 66.52 561.64C66.3867 561.867 66.2933 562 66.24 562.04C66.2 562.08 66.1133 562.1 65.98 562.1C65.9 562.087 65.7667 562.04 65.58 561.96C65.3933 561.867 65.2 561.76 65 561.64C64.5333 561.36 64.22 561.194 64.06 561.14C63.9133 561.087 63.8267 561.014 63.8 560.92C63.7867 560.827 63.82 560.74 63.9 560.66C63.9933 560.567 64.1267 560.507 64.3 560.48C64.38 560.467 64.4933 560.467 64.64 560.48C64.7867 560.48 64.9333 560.494 65.08 560.52C65.4133 560.587 65.62 560.607 65.7 560.58C65.78 560.54 65.8733 560.434 65.98 560.26C66.06 560.14 66.2333 559.687 66.5 558.9C66.78 558.1 66.92 557.654 66.92 557.56C66.92 557.534 66.8867 557.514 66.82 557.5C66.7667 557.474 66.6867 557.46 66.58 557.46C66.3667 557.46 66.2067 557.42 66.1 557.34C65.9933 557.247 65.7933 557.02 65.5 556.66C65.0733 556.167 64.7933 555.814 64.66 555.6C64.54 555.387 64.5467 555.28 64.68 555.28C64.7467 555.28 64.9267 555.374 65.22 555.56C65.3533 555.64 65.4933 555.714 65.64 555.78C65.7867 555.834 65.9 555.867 65.98 555.88C66.1667 555.907 66.6333 555.814 67.38 555.6C68.14 555.387 68.78 555.227 69.3 555.12C69.5133 555.08 69.7 555.034 69.86 554.98C70.0333 554.927 70.1267 554.887 70.14 554.86C70.18 554.807 70.2 554.44 70.2 553.76C70.2 553.08 70.2133 552.427 70.24 551.8C70.28 551.174 70.2733 550.72 70.22 550.44C70.1667 550.147 70.0267 549.834 69.8 549.5C69.6267 549.247 69.52 549.04 69.48 548.88C69.4533 548.707 69.4867 548.56 69.58 548.44C69.7133 548.294 69.9267 548.307 70.22 548.48C70.5133 548.64 70.8 548.9 71.08 549.26C71.3733 549.62 71.58 549.994 71.7 550.38C71.78 550.634 71.82 550.9 71.82 551.18C71.8333 551.447 71.82 552.167 71.78 553.34C71.7667 554.034 71.76 554.627 71.76 555.12C71.76 555.6 71.7667 555.847 71.78 555.86C71.8333 555.914 71.9533 555.827 72.14 555.6C72.34 555.374 72.5933 555.034 72.9 554.58C73.26 554.034 73.5 553.634 73.62 553.38C73.74 553.114 73.8 552.854 73.8 552.6C73.8 552.48 73.8067 552.374 73.82 552.28C73.8333 552.187 73.8467 552.134 73.86 552.12C73.9267 552.094 74.1533 552.187 74.54 552.4C74.9267 552.614 75.2267 552.814 75.44 553C75.6933 553.227 75.82 553.407 75.82 553.54C75.82 553.66 75.66 553.867 75.34 554.16C73.9 555.52 73.0467 556.394 72.78 556.78C72.5667 557.074 72.46 557.26 72.46 557.34C72.46 557.42 72.5467 557.534 72.72 557.68C72.8933 557.814 73.2267 558.034 73.72 558.34C74.36 558.74 74.94 559.067 75.46 559.32C75.98 559.56 76.5067 559.76 77.04 559.92C77.7867 560.147 78.3333 560.327 78.68 560.46C79.04 560.58 79.3667 560.714 79.66 560.86C79.86 560.967 80 561.054 80.08 561.12C80.16 561.187 80.2 561.247 80.2 561.3C80.2 561.34 80.1867 561.38 80.16 561.42C80.1333 561.46 80.1 561.487 80.06 561.5C79.9667 561.54 79.7 561.647 79.26 561.82C78.82 561.994 78.44 562.107 78.12 562.16C77.6667 562.24 77.2067 562.18 76.74 561.98C76.2733 561.78 75.62 561.36 74.78 560.72C74.1667 560.267 73.48 559.78 72.72 559.26C71.96 558.74 71.5467 558.48 71.48 558.48C71.4267 558.48 71.3933 558.527 71.38 558.62C71.38 558.7 71.3867 558.867 71.4 559.12L71.62 561.92C71.7133 563.36 71.7867 564.247 71.84 564.58C71.8667 564.714 71.88 564.834 71.88 564.94C71.8933 565.047 71.8867 565.114 71.86 565.14C71.8467 565.154 71.7933 565.154 71.7 565.14C71.62 565.114 71.5267 565.074 71.42 565.02ZM70.16 562.18C70.1867 562.1 70.1867 561.7 70.16 560.98C70.1333 560.26 70.0933 559.56 70.04 558.88C70 558.44 69.9533 558.14 69.9 557.98C69.86 557.807 69.78 557.647 69.66 557.5C69.62 557.46 69.58 557.394 69.54 557.3C69.5133 557.207 69.4933 557.12 69.48 557.04C69.48 556.907 69.4667 556.82 69.44 556.78C69.4133 556.74 69.3667 556.714 69.3 556.7C69.2333 556.687 69.1667 556.707 69.1 556.76C69.0467 556.8 68.98 556.88 68.9 557C68.7667 557.227 68.56 557.507 68.28 557.84C68.1333 558.027 68.0133 558.207 67.92 558.38C67.8267 558.54 67.7467 558.734 67.68 558.96C67.5333 559.374 67.46 559.62 67.46 559.7C67.46 559.78 67.62 560.034 67.94 560.46C68.2733 560.874 68.5667 561.194 68.82 561.42C69.02 561.62 69.26 561.82 69.54 562.02C69.82 562.22 69.98 562.32 70.02 562.32C70.0733 562.32 70.12 562.274 70.16 562.18Z" fill="#031D4C"/>
</svg>
